<?xml version="1.0" encoding="UTF-8"?>
<svg id="Ebene_1" data-name="Ebene 1" xmlns="http://www.w3.org/2000/svg" viewBox="0 0 414.43 54.93">
  <defs>
    <style>
      .cls-1 {
        fill: #c00d0d;
      }

      .cls-2 {
        fill: #1d1d1b;
      }
    </style>
  </defs>
  <g>
    <circle class="cls-1" cx="15.78" cy="29.16" r="4.5"/>
    <circle class="cls-1" cx="25.11" cy="38.44" r="4.5"/>
    <circle class="cls-1" cx="20.43" cy="17.5" r="4.5"/>
    <circle class="cls-1" cx="29.09" cy="25.7" r="4.5"/>
    <circle class="cls-1" cx="37.09" cy="33.7" r="4.5"/>
    <circle class="cls-1" cx="49.87" cy="30.2" r="4.5"/>
    <g>
      <circle class="cls-1" cx="11.47" cy="9.56" r="4.5"/>
      <circle class="cls-1" cx="4.64" cy="20.32" r="4.5"/>
      <circle class="cls-1" cx="4.5" cy="33.59" r="4.5"/>
      <circle class="cls-1" cx="11.1" cy="44.49" r="4.5"/>
      <circle class="cls-1" cx="22.42" cy="50.43" r="4.5"/>
      <circle class="cls-1" cx="35.65" cy="49.47" r="4.5"/>
      <circle class="cls-1" cx="45.97" cy="41.99" r="4.5"/>
    </g>
    <circle class="cls-1" cx="23.52" cy="3.03" r="3.03"/>
    <circle class="cls-1" cx="31.17" cy="12.5" r="3.03"/>
    <circle class="cls-1" cx="36" cy="4.31" r="2.69"/>
    <circle class="cls-1" cx="44.47" cy="9.39" r="2.01"/>
    <circle class="cls-1" cx="50.06" cy="17.93" r="1.73"/>
    <circle class="cls-1" cx="40.51" cy="20.34" r="2.65"/>
  </g>
  <g>
    <path class="cls-2" d="m80.21,33.26c-2.08,0-3.7-.58-4.88-1.75s-1.76-2.85-1.76-5.06v-8.54h2.81v8.43c0,1.56.33,2.69,1,3.39.67.71,1.62,1.06,2.84,1.06s2.17-.35,2.83-1.06c.66-.71,1-1.84,1-3.39v-8.43h2.77v8.54c0,2.21-.59,3.89-1.76,5.06-1.18,1.17-2.79,1.75-4.85,1.75Z"/>
    <path class="cls-2" d="m90.76,33.04v-15.14h2.31l9.49,11.65h-1.15v-11.65h2.79v15.14h-2.31l-9.49-11.65h1.15v11.65h-2.79Z"/>
    <path class="cls-2" d="m108.27,33.04v-15.14h2.81v15.14h-2.81Z"/>
    <path class="cls-2" d="m118.24,33.04v-12.76h-5.02v-2.38h12.84v2.38h-5.02v12.76h-2.81Z"/>
    <path class="cls-2" d="m131,30.69h8.54v2.36h-11.35v-15.14h11.05v2.36h-8.24v10.42Zm-.22-6.49h7.52v2.31h-7.52v-2.31Z"/>
    <path class="cls-2" d="m142.67,33.04v-15.14h6.62c1.64,0,3.08.32,4.33.95,1.24.63,2.21,1.51,2.9,2.64.69,1.12,1.04,2.45,1.04,3.98s-.35,2.84-1.04,3.97c-.69,1.13-1.66,2.01-2.9,2.65-1.24.63-2.68.95-4.33.95h-6.62Zm2.81-2.38h3.68c1.14,0,2.12-.22,2.95-.65s1.47-1.04,1.92-1.82.68-1.69.68-2.72-.23-1.96-.68-2.74c-.45-.77-1.1-1.37-1.92-1.8-.83-.43-1.81-.65-2.95-.65h-3.68v10.38Z"/>
    <path class="cls-2" d="m171.2,33.26c-1.18,0-2.31-.17-3.39-.51-1.08-.34-1.94-.77-2.57-1.31l.97-2.18c.61.48,1.35.87,2.25,1.19.89.32,1.81.48,2.75.48.79,0,1.43-.09,1.92-.26.49-.17.85-.41,1.08-.7.23-.3.35-.63.35-1.01,0-.46-.17-.83-.5-1.11-.33-.28-.76-.5-1.29-.67-.53-.17-1.11-.32-1.75-.47-.64-.14-1.28-.31-1.92-.51s-1.23-.45-1.75-.76c-.53-.31-.96-.72-1.29-1.24-.33-.52-.5-1.18-.5-1.99s.22-1.58.66-2.26,1.11-1.23,2.01-1.64c.9-.41,2.04-.62,3.43-.62.91,0,1.81.12,2.7.35.89.23,1.67.56,2.33.99l-.89,2.18c-.68-.4-1.38-.7-2.1-.9-.72-.2-1.41-.29-2.08-.29-.78,0-1.41.09-1.89.28-.48.19-.84.43-1.06.73s-.33.65-.33,1.04c0,.46.16.83.49,1.11.32.28.75.5,1.28.66.53.16,1.11.31,1.76.46s1.29.32,1.94.51,1.22.43,1.75.74.95.71,1.28,1.23.49,1.17.49,1.97-.22,1.55-.66,2.24c-.44.68-1.11,1.23-2.02,1.64-.91.41-2.05.62-3.44.62Z"/>
    <path class="cls-2" d="m182.91,30.69h8.54v2.36h-11.35v-15.14h11.05v2.36h-8.24v10.42Zm-.22-6.49h7.52v2.31h-7.52v-2.31Z"/>
    <path class="cls-2" d="m201.6,33.26c-1.15,0-2.22-.19-3.21-.57s-1.85-.92-2.57-1.62-1.29-1.52-1.7-2.48-.61-1.99-.61-3.11.2-2.16.61-3.11.97-1.78,1.71-2.48,1.59-1.24,2.57-1.62,2.05-.57,3.22-.57c1.24,0,2.37.21,3.39.64,1.02.42,1.89,1.06,2.59,1.89l-1.82,1.71c-.55-.59-1.16-1.03-1.84-1.33-.68-.29-1.41-.44-2.21-.44s-1.52.13-2.17.39c-.66.26-1.23.63-1.71,1.1-.48.48-.86,1.04-1.12,1.69-.27.65-.4,1.36-.4,2.14s.13,1.49.4,2.14c.27.65.64,1.21,1.12,1.69.48.48,1.05.84,1.71,1.1.66.26,1.38.39,2.17.39s1.53-.15,2.21-.44c.68-.29,1.29-.75,1.84-1.35l1.82,1.73c-.71.82-1.57,1.45-2.59,1.88s-2.16.65-3.42.65Z"/>
    <path class="cls-2" d="m216.8,33.26c-2.08,0-3.7-.58-4.88-1.75s-1.76-2.85-1.76-5.06v-8.54h2.81v8.43c0,1.56.33,2.69,1.01,3.39.67.71,1.62,1.06,2.84,1.06s2.17-.35,2.83-1.06c.66-.71.99-1.84.99-3.39v-8.43h2.77v8.54c0,2.21-.59,3.89-1.76,5.06s-2.79,1.75-4.85,1.75Z"/>
    <path class="cls-2" d="m227.35,33.04v-15.14h6.23c1.34,0,2.49.22,3.45.65.96.43,1.7,1.05,2.22,1.86.52.81.78,1.77.78,2.88s-.26,2.07-.78,2.87-1.26,1.41-2.22,1.84c-.96.42-2.11.64-3.45.64h-4.67l1.25-1.28v5.69h-2.81Zm2.81-5.38l-1.25-1.34h4.54c1.24,0,2.17-.27,2.8-.8.63-.53.94-1.28.94-2.23s-.31-1.71-.94-2.23c-.63-.52-1.56-.78-2.8-.78h-4.54l1.25-1.38v8.76Zm7.09,5.38l-3.83-5.49h3.01l3.85,5.49h-3.03Z"/>
    <path class="cls-2" d="m243.16,33.04v-15.14h2.81v15.14h-2.81Z"/>
    <path class="cls-2" d="m253.12,33.04v-12.76h-5.02v-2.38h12.84v2.38h-5.02v12.76h-2.81Z"/>
    <path class="cls-2" d="m268.57,33.04v-5.99l.63,1.73-6.57-10.88h3.01l5.28,8.76h-1.69l5.32-8.76h2.77l-6.57,10.88.65-1.73v5.99h-2.81Z"/>
    <path class="cls-2" d="m284.11,33.04v-15.14h6.23c1.34,0,2.49.22,3.45.65s1.7,1.05,2.22,1.86c.52.81.78,1.77.78,2.88s-.26,2.07-.78,2.88c-.52.81-1.26,1.43-2.22,1.86s-2.11.65-3.45.65h-4.67l1.25-1.32v5.69h-2.81Zm2.81-5.38l-1.25-1.36h4.54c1.24,0,2.17-.26,2.8-.79s.94-1.27.94-2.22-.31-1.71-.94-2.23c-.63-.52-1.56-.78-2.8-.78h-4.54l1.25-1.38v8.76Z"/>
    <path class="cls-2" d="m299.59,33.04v-15.14h6.23c1.34,0,2.49.22,3.45.65.96.43,1.7,1.05,2.22,1.86.52.81.78,1.77.78,2.88s-.26,2.07-.78,2.87-1.26,1.41-2.22,1.84c-.96.42-2.11.64-3.45.64h-4.67l1.25-1.28v5.69h-2.81Zm2.81-5.38l-1.25-1.34h4.54c1.24,0,2.17-.27,2.8-.8.63-.53.94-1.28.94-2.23s-.31-1.71-.94-2.23c-.63-.52-1.56-.78-2.8-.78h-4.54l1.25-1.38v8.76Zm7.09,5.38l-3.83-5.49h3.01l3.85,5.49h-3.03Z"/>
    <path class="cls-2" d="m322.49,33.26c-1.18,0-2.27-.19-3.26-.58-1-.39-1.86-.93-2.59-1.63-.74-.7-1.3-1.52-1.71-2.46-.4-.94-.61-1.98-.61-3.1s.2-2.16.61-3.1c.4-.94.97-1.77,1.71-2.46.73-.7,1.6-1.24,2.59-1.63.99-.39,2.08-.58,3.24-.58s2.27.2,3.25.58c.99.39,1.85.93,2.58,1.63s1.3,1.52,1.71,2.46.61,1.98.61,3.1-.2,2.16-.61,3.11-.97,1.77-1.71,2.46c-.74.69-1.6,1.23-2.58,1.62-.99.39-2.06.58-3.23.58Zm-.02-2.46c.76,0,1.47-.13,2.12-.39.65-.26,1.21-.63,1.69-1.11.48-.48.85-1.04,1.11-1.69.27-.64.4-1.35.4-2.13s-.13-1.49-.4-2.13c-.27-.64-.64-1.2-1.11-1.69-.48-.48-1.04-.85-1.69-1.11s-1.36-.39-2.12-.39-1.47.13-2.11.39-1.2.63-1.69,1.11-.86,1.05-1.12,1.69c-.27.64-.4,1.35-.4,2.13s.13,1.47.4,2.12c.27.65.64,1.21,1.11,1.7.48.48,1.04.85,1.69,1.11.65.26,1.35.39,2.12.39Z"/>
    <path class="cls-2" d="m337.61,33.04l-6.62-15.14h3.05l5.9,13.69h-1.75l5.97-13.69h2.81l-6.59,15.14h-2.77Z"/>
    <path class="cls-2" d="m348.57,33.04v-15.14h2.81v15.14h-2.81Z"/>
    <path class="cls-2" d="m355.47,33.04v-15.14h6.62c1.64,0,3.08.32,4.33.95,1.24.63,2.21,1.51,2.9,2.64.69,1.12,1.04,2.45,1.04,3.98s-.35,2.84-1.04,3.97c-.69,1.13-1.66,2.01-2.9,2.65-1.24.63-2.68.95-4.33.95h-6.62Zm2.81-2.38h3.68c1.14,0,2.12-.22,2.95-.65s1.47-1.04,1.92-1.82.68-1.69.68-2.72-.23-1.96-.68-2.74c-.45-.77-1.1-1.37-1.92-1.8-.83-.43-1.81-.65-2.95-.65h-3.68v10.38Z"/>
    <path class="cls-2" d="m376.14,30.69h8.54v2.36h-11.35v-15.14h11.05v2.36h-8.24v10.42Zm-.22-6.49h7.53v2.31h-7.53v-2.31Z"/>
    <path class="cls-2" d="m387.82,33.04v-15.14h6.23c1.34,0,2.49.22,3.45.65.96.43,1.7,1.05,2.22,1.86.52.81.78,1.77.78,2.88s-.26,2.07-.78,2.87c-.52.8-1.26,1.41-2.22,1.84-.96.42-2.11.64-3.45.64h-4.67l1.25-1.28v5.69h-2.81Zm2.81-5.38l-1.25-1.34h4.54c1.24,0,2.17-.27,2.8-.8s.94-1.28.94-2.23-.31-1.71-.94-2.23c-.63-.52-1.56-.78-2.8-.78h-4.54l1.25-1.38v8.76Zm7.09,5.38l-3.83-5.49h3.01l3.85,5.49h-3.03Z"/>
    <path class="cls-2" d="m408.31,33.26c-1.18,0-2.31-.17-3.39-.51s-1.94-.77-2.57-1.31l.97-2.18c.61.48,1.36.87,2.25,1.19s1.81.48,2.75.48c.79,0,1.43-.09,1.92-.26.49-.17.85-.41,1.08-.7.23-.3.35-.63.35-1.01,0-.46-.17-.83-.5-1.11-.33-.28-.76-.5-1.29-.67-.53-.17-1.11-.32-1.75-.47-.64-.14-1.28-.31-1.92-.51s-1.23-.45-1.75-.76c-.53-.31-.96-.72-1.29-1.24-.33-.52-.5-1.18-.5-1.99s.22-1.58.66-2.26c.44-.68,1.11-1.23,2.01-1.64.9-.41,2.04-.62,3.43-.62.91,0,1.81.12,2.7.35.89.23,1.67.56,2.33.99l-.89,2.18c-.68-.4-1.38-.7-2.1-.9-.72-.2-1.41-.29-2.08-.29-.78,0-1.41.09-1.89.28-.48.19-.84.43-1.06.73-.22.3-.34.65-.34,1.04,0,.46.16.83.49,1.11.32.28.75.5,1.28.66.53.16,1.11.31,1.76.46.65.15,1.29.32,1.94.51s1.23.43,1.75.74c.53.3.95.71,1.28,1.23s.49,1.17.49,1.97-.22,1.55-.66,2.24c-.44.68-1.11,1.23-2.02,1.64-.91.41-2.05.62-3.44.62Z"/>
  </g>
</svg>